<svg height="512" viewBox="0 0 128 128" width="512" xmlns="http://www.w3.org/2000/svg"><g><path d="m36.512 34.692a1.749 1.749 0 0 1 -1.43-2.756 11.385 11.385 0 0 1 6.361-4.4 1.749 1.749 0 1 1 .739 3.42 7.958 7.958 0 0 0 -4.237 2.988 1.745 1.745 0 0 1 -1.433.748z" fill="#a9ce24"/><path d="m46.5 45.813a1.751 1.751 0 0 1 -1.431-2.757 11.389 11.389 0 0 1 6.362-4.4 1.75 1.75 0 0 1 .738 3.421 7.954 7.954 0 0 0 -4.236 2.988 1.751 1.751 0 0 1 -1.433.748z" fill="#a9ce24"/><path d="m59.745 55.255a1.749 1.749 0 0 1 -1.43-2.756 11.4 11.4 0 0 1 6.362-4.4 1.75 1.75 0 1 1 .738 3.421 7.957 7.957 0 0 0 -4.237 2.987 1.747 1.747 0 0 1 -1.433.748z" fill="#a9ce24"/><path d="m52.586 50.586a1.749 1.749 0 0 1 -1.43-2.756 11.391 11.391 0 0 1 6.361-4.4 1.75 1.75 0 1 1 .738 3.421 7.956 7.956 0 0 0 -4.236 2.987 1.747 1.747 0 0 1 -1.433.748z" fill="#a9ce24"/><path d="m41.14 40.61a1.75 1.75 0 0 1 -1.518-2.619c1.7-2.967 5.835-4.48 6.3-4.643a1.75 1.75 0 1 1 1.154 3.3c-.924.327-3.525 1.518-4.417 3.077a1.75 1.75 0 0 1 -1.519.885z" fill="#a9ce24"/><path d="m113.08 70.37c-6.36 6.54-15.47 8.35-25.77 8.69-1.15.04-2.32.06-3.5.06h-.02c-.03 1.46-.07 2.96-.16 4.31-.31 4.85-6.87 8.23-12.22 14.51l-4.24-2.99s5.84-5.16 8.34-9.88c1.25-2.35-.81-3.91-2.17-6.06-.01-.02-.03-.04-.04-.06-1.3-.04-2.61-.08-3.92-.11-1.37-.04-2.75-.07-4.13-.09a80.041 80.041 0 0 1 -13.63-.78c-1.14-.18-2.29-.41-3.44-.7h-.01c-.17.8-.34 1.58-.52 2.32-1.13 4.72-8.18 6.92-14.53 12.19l-3.66-3.67s6.64-4.08 9.92-8.3c1.09-1.41 1.17-3.14.92-5.12a.277.277 0 0 0 -.01-.09c-.01-.1-.02-.21-.04-.32a27.9 27.9 0 0 1 -3.99-2.58c-4.33-3.31-8.11-8.19-10.59-15.37a15.329 15.329 0 0 1 -7.84-10.75c-1.5-7.83-11.33-8.75-11.33-13.71 0-4.43 9.29-3.06 13.29-6.16s11.55-1.74 16.5 6.86 28.09 31.01 57.44 29.79c17.26-.72 21.92-9.59 21.92-17.88 0-5.81-2.29-11.34-4.15-13.56a5.568 5.568 0 0 1 5.95 3c4.25 8.4 8 21.06-4.37 36.45z" fill="#bae543"/><g fill="#a9ce24"><path d="m42.929 50.585a1.744 1.744 0 0 1 -1.148-.429c-1.98-1.722-3.855-3.509-5.573-5.31a1.75 1.75 0 0 1 2.533-2.415c1.643 1.722 3.439 3.433 5.337 5.084a1.75 1.75 0 0 1 -1.149 3.07z"/><circle cx="25.677" cy="35" r="3"/><path d="m53.23 68.91c0 .05-.72 4.77-1.61 9.06-1.14-.18-2.29-.41-3.44-.7.87-4.2 1.59-8.84 1.59-8.89a1.75 1.75 0 0 1 3.46.53z"/><path d="m40.48 61.88c-1.78 3.62-1.16 7.09-.56 10.44.12.68.24 1.33.33 1.96a27.9 27.9 0 0 1 -3.99-2.58c-.56-3.31-.95-7.25 1.07-11.36a1.753 1.753 0 0 1 3.15 1.54z"/><path d="m87.31 79.06c-1.15.04-2.32.06-3.5.06v-.03c.07-3.7 0-7.2 0-7.24a1.75 1.75 0 0 1 3.5-.07c0 .04.07 3.54 0 7.28z"/><path d="m75.24 71.22c-3.94 4.46-2.74 6.39-2.03 7.54.05.08.09.17.13.25-.01-.02-.03-.04-.04-.06-1.3-.04-2.61-.08-3.92-.11-1.09-3.07-.05-6.21 3.23-9.94a1.754 1.754 0 0 1 2.63 2.32z"/></g><g fill="#bae543"><path d="m71.407 105.557a1.753 1.753 0 0 1 -1.7-2.161c.4-1.648.559-3.9.165-4.62a1.749 1.749 0 1 1 3.069-1.676c1.248 2.29.356 6.333.164 7.12a1.749 1.749 0 0 1 -1.698 1.337z"/><path d="m64.56 102.623a1.75 1.75 0 0 1 -1.16-3.065l4.9-4.305a1.75 1.75 0 1 1 2.308 2.63l-4.9 4.305a1.742 1.742 0 0 1 -1.148.435z"/><path d="m60.894 97a1.75 1.75 0 0 1 -.778-3.318c2.593-1.284 6.892-.54 7.374-.451a1.75 1.75 0 0 1 -.635 3.442c-1.482-.271-4.072-.405-5.186.145a1.737 1.737 0 0 1 -.775.182z"/></g><path d="m32.114 99.314a1.724 1.724 0 0 1 -.7-.146 1.75 1.75 0 0 1 -.908-2.3c.674-1.555 1.218-3.743.954-4.523a1.75 1.75 0 0 1 3.315-1.123c.836 2.469-.736 6.3-1.06 7.043a1.748 1.748 0 0 1 -1.601 1.049z" fill="#bae543"/><path d="m25.874 95.25a1.75 1.75 0 0 1 -.914-3.244l5.569-3.4a1.75 1.75 0 0 1 1.825 2.987l-5.569 3.4a1.743 1.743 0 0 1 -.911.257z" fill="#bae543"/><path d="m29.46 89.864a1.739 1.739 0 0 1 -.605-.109c-1.415-.522-3.944-1.1-5.134-.746a1.75 1.75 0 1 1 -.992-3.357c2.776-.821 6.882.651 7.342.821a1.75 1.75 0 0 1 -.611 3.391z" fill="#bae543"/></g></svg>