<svg height="511pt" viewBox="0 0 511 511.67516" width="511pt" xmlns="http://www.w3.org/2000/svg"><path d="m445.539062 469.480469c-1.191406 6.632812-3.269531 13.074219-6.175781 19.15625-4.097656 8.945312-10.199219 16.828125-17.832031 23.039062l-165.605469-231.636719-25.070312-34.957031-28.425781-39.8125 28.6875-20.566406c9.003906 12.535156 17.214843 23.304687 24.808593 32.570313l24.980469 27.808593c49.609375 49.167969 68.945312 29.835938 128.792969 113.523438 35.398437 49.523437 40.519531 85.980469 35.839843 110.875zm0 0" fill="#90bae1"/><path d="m445.539062 469.480469c-1.191406 6.632812-3.269531 13.074219-6.175781 19.15625-1.578125-.574219-2.9375-1.621094-3.886719-3.003907l-89.15625-124.820312c-2.171874-2.535156-2.726562-6.078125-1.4375-9.15625 1.289063-3.074219 4.203126-5.164062 7.535157-5.394531 3.328125-.226563 6.5 1.4375 8.203125 4.308593zm0 0" fill="#b0d3f0"/><path d="m235.78125 160.882812-46.097656-64.441406c-2.6875-3.796875-3.753906-8.511718-2.960938-13.097656.789063-4.585938 3.367188-8.667969 7.171875-11.351562 7.832031-5.609376 9.632813-16.503907 4.027344-24.335938s-16.5-9.636719-24.332031-4.027344c-7.832032 5.679688-18.785156 3.945313-24.480469-3.875l-5.074219-7.0625c-25.574218-35.324218-74.941406-43.230468-110.265625-17.65625-35.625 25.148438-44.121093 74.410156-18.980469 110.035156l19.421876 27.082032c19.363281 26.902344 52.316406 40.476562 85.007812 35.019531l16.597656-2.71875c16.351563-2.734375 32.839844 4.054687 42.523438 17.515625 5.433594 7.484375 15.90625 9.15625 23.402344 3.734375l30.011718-21.46875c7.550782-5.34375 9.351563-15.789063 4.027344-23.351563zm-77.359375-33.023437c-3.582031 15.300781-23.355469 21.992187-37.761719 24.339844-10.441406 1.886719-21.175781 1.375-31.390625-1.492188-10.515625-3.585937-19.71875-10.222656-26.441406-19.066406-7.132813-8.539063-13.089844-18.425781-19.3125-27.128906-14.183594-19.828125-9.605469-47.398438 10.222656-61.582031 19.828125-14.183594 47.398438-9.605469 61.582031 10.222656l5.066407 7.0625c7.75 10.828125 15.515625 21.652344 23.292969 32.46875 7.195312 10 17.285156 24.292968 14.742187 35.175781zm0 0" fill="#e64c3c"/><path d="m309.417969 205.269531-28.511719 39.8125-24.980469 34.957031-165.695312 231.636719c-7.660157-6.183593-13.765625-14.074219-17.832031-23.039062-2.910157-6.082031-4.988282-12.523438-6.179688-19.15625-4.679688-24.894531.441406-61.351563 35.839844-110.875 59.851562-83.6875 79.183594-64.355469 128.796875-113.523438 8.855469-8.804687 17.226562-18.089843 25.070312-27.808593 7.5-9.265626 15.710938-20.035157 24.714844-32.570313zm0 0" fill="#b0d3f0"/><path d="m478.007812 15.035156c-35.304687-25.589844-84.667968-17.722656-110.265624 17.574219l-5.074219 7.0625c-5.691407 7.84375-16.65625 9.59375-24.507813 3.910156-5.066406-3.625-11.679687-4.273437-17.355468-1.699219-5.675782 2.574219-9.542969 7.980469-10.152344 14.179688-.605469 6.203125 2.140625 12.257812 7.207031 15.882812 3.800781 2.683594 6.382813 6.765626 7.175781 11.351563.792969 4.585937-.273437 9.300781-2.957031 13.101563l-46.097656 64.441406c-5.324219 7.5625-3.523438 18.007812 4.027343 23.347656l30.011719 21.46875c7.496094 5.425781 17.964844 3.753906 23.402344-3.730469 9.683594-13.460937 26.167969-20.25 42.523437-17.515625l16.59375 2.71875c32.710938 5.46875 65.6875-8.113281 85.054688-35.035156l19.367188-27.085938c25.105468-35.609374 16.625-84.820312-18.953126-109.972656zm-9.78125 89.476563c-6.179687 8.703125-12.179687 18.589843-19.3125 27.128906-6.722656 8.839844-15.929687 15.476563-26.441406 19.066406-10.214844 2.867188-20.949218 3.378907-31.390625 1.492188-14.40625-2.347657-34.179687-9.039063-37.761719-24.339844-2.542968-10.882813 7.539063-25.175781 14.742188-35.140625 7.820312-10.792969 15.609375-21.617188 23.363281-32.46875l5.070313-7.0625c14.546875-18.679688 41.246094-22.550781 60.503906-8.773438 19.257812 13.777344 24.210938 40.296876 11.226562 60.097657zm0 0" fill="#e64c3c"/><path d="m165.53125 360.8125-89.25 124.820312c-.949219 1.382813-2.308594 2.429688-3.882812 3.003907-2.910157-6.082031-4.988282-12.523438-6.179688-19.15625l85.011719-118.910157c1.699219-2.871093 4.871093-4.535156 8.203125-4.308593 3.328125.230469 6.242187 2.320312 7.53125 5.394531 1.289062 3.078125.734375 6.621094-1.433594 9.15625zm0 0" fill="#90bae1"/><path d="m281.964844 246.316406c0 14.628906-11.855469 26.484375-26.480469 26.484375-14.628906 0-26.484375-11.855469-26.484375-26.484375 0-14.625 11.855469-26.480468 26.484375-26.480468 14.625 0 26.480469 11.855468 26.480469 26.480468zm0 0" fill="#4482c3"/></svg>