<svg height="511pt" viewBox="-44 0 511 511.99695" width="511pt" xmlns="http://www.w3.org/2000/svg"><path d="m416.988281 238.339844c-53.40625 53.410156-63.203125 135.859375-118.199219 188.382812-4.621093 4.191406-8.875 8.769532-12.714843 13.683594-11.121094 15.007812-12.09375 32.75-12.09375 50.667969v3.265625c-.027344 9.742187-7.914063 17.628906-17.652344 17.65625h-141.242187c-9.738282-.027344-17.625-7.914063-17.65625-17.65625v-44.753906c.054687-3.515626-.960938-6.960938-2.914063-9.886719-6.019531-8.625-10.941406-17.964844-14.652344-27.808594l-77.683593-225.277344c-4.894532-13.402343 1.226562-28.328125 14.125-34.429687 7.085937-3.019532 15.132812-2.824219 22.070312.53125 5.328125 2.667968 9.640625 7.007812 12.269531 12.359375l-30.101562-87.570313c-4.753907-13.847656 2.617187-28.925781 16.460937-33.679687 13.847656-4.75 28.925782 2.621093 33.679688 16.464843l53.316406 155.367188c3.84375 11.171875 14.621094 18.449219 26.421875 17.835938 11.800781-.613282 21.765625-8.972657 24.425781-20.484376l44.578125-192.53125c1.785157-7.65625 6.878907-14.128906 13.90625-17.65625 7.023438-3.53125 15.257813-3.757812 22.464844-.617187 11.90625 5.683594 18.121094 19.003906 14.832031 31.78125l-4.152344 17.652344c4.382813-13.550781 18.695313-21.210938 32.398438-17.335938 13.707031 3.871094 21.894531 17.886719 18.539062 31.726563l-42.195312 181.140625c-10.066406 52.96875 16.417969 52.96875 16.417969 52.96875 3.476562-1.917969 6.757812-4.164063 9.800781-6.710938 2.328125-1.796875 4.539062-3.742187 6.617188-5.824219 7.105468-6.886718 13.441406-14.523437 18.894531-22.777343 17.652343-26.484375 54.730469-61.792969 72.382812-61.792969 17.65625 0 35.3125 17.65625 17.65625 35.308594zm0 0" fill="#fdd7ad"/><path d="m238.6875 450.203125h-8.824219c-4.878906 0-8.828125 3.953125-8.828125 8.828125s3.949219 8.828125 8.828125 8.828125h8.824219c4.878906 0 8.828125-3.953125 8.828125-8.828125s-3.949219-8.828125-8.828125-8.828125zm0 0" fill="#fee7ce"/><path d="m194.550781 450.203125h-61.792969c-4.875 0-8.828124 3.953125-8.828124 8.828125s3.953124 8.828125 8.828124 8.828125h61.792969c4.875 0 8.828125-3.953125 8.828125-8.828125s-3.953125-8.828125-8.828125-8.828125zm0 0" fill="#fee7ce"/><g fill="#cbb292"><path d="m275.246094 247.167969c-5.5625 29.222656-.972656 44.140625 16.390625 52.96875-5.296875 3.933593-17.550781.882812-22.878907-1.582031-12.359374-5.695313-13.871093-21.355469-13.375-33.351563.292969-6.054687 1.03125-12.085937 2.207032-18.035156l42.195312-181.140625c3.121094-13.097656-4.15625-26.433594-16.859375-30.898438 4.707031-1.796875 9.851563-2.105468 14.742188-.882812 6.851562 1.5625 12.800781 5.796875 16.515625 11.765625 3.710937 5.96875 4.886718 13.175781 3.257812 20.015625zm0 0"/><path d="m270.652344 33.804688v.179687l-2.382813 10.152344-47.226562 188.820312c-1.171875 4.726563-5.953125 7.609375-10.679688 6.445313-4.730469-1.175782-7.613281-5.953125-6.445312-10.683594 0 0 47.578125-188.46875 47.578125-188.554688l1.503906-6.179687c3.292969-12.777344-2.925781-26.097656-14.832031-31.78125-.574219-.246094-1.164063-.449219-1.765625-.617187 6.3125-2.304688 13.269531-2.085938 19.421875.617187 11.820312 5.675781 18.015625 18.882813 14.828125 31.601563zm0 0"/><path d="m153.421875 233.132812c-6.996094 8.089844-18.132813 11.25-28.335937 8.035157-8.027344-2.441407-14.335938-8.683594-16.859376-16.683594l-12.800781-37.34375-40.519531-118.023437c-4.222656-12.132813-16.53125-19.496094-29.21875-17.480469 2.980469-3.582031 6.890625-6.269531 11.300781-7.765625 13.84375-4.742188 28.917969 2.59375 33.722657 16.417968l7.941406 23.21875 20.921875 60.820313 24.453125 71.328125c4.03125 12.371094 16.601562 19.84375 29.394531 17.476562zm0 0"/><path d="m79.183594 273.210938c-.917969.269531-1.867188.417968-2.824219.441406-3.796875.007812-7.171875-2.40625-8.386719-6.003906l-31.601562-92.246094c-.160156-.492188-.277344-.992188-.355469-1.5h-.085937c-2.628907-5.351563-6.941407-9.691406-12.273438-12.359375-5.226562-2.554688-11.160156-3.300781-16.859375-2.121094 5.078125-6.269531 12.863281-9.71875 20.921875-9.269531 3.695312.140625 7.324219 1.007812 10.679688 2.5625 4.523437 2.226562 8.296874 5.722656 10.859374 10.0625.585938.691406 1.058594 1.464844 1.414063 2.296875l33.984375 96.925781c1.582031 4.605469-.867188 9.625-5.472656 11.210938zm0 0"/></g></svg>